<svg width="95" height="22" viewBox="0 0 95 22" fill="none" xmlns="http://www.w3.org/2000/svg">
<path d="M8.36 5.92C8.76 5.32 8.96 4.76 8.96 4.24C8.96 3.72 8.81333 3.30667 8.52 3C8.22667 2.69333 7.84 2.54 7.36 2.54C6.88 2.54 6.49333 2.66 6.2 2.9C5.90667 3.12667 5.76 3.49333 5.76 4C5.76 4.49333 6.10667 5.38667 6.8 6.68C7.49333 7.97333 7.93333 8.80667 8.12 9.18C8.62667 10.1933 8.88 11.1733 8.88 12.12C8.88 13.3067 8.44667 14.2733 7.58 15.02C6.72667 15.7533 5.71333 16.12 4.54 16.12C3.38 16.12 2.46667 15.76 1.8 15.04C1.13333 14.3067 0.8 13.4533 0.8 12.48C0.8 10.68 1.91333 9.19333 4.14 8.02C3.23333 6.23333 2.78 4.98667 2.78 4.28C2.78 3.29333 3.17333 2.46 3.96 1.78C4.76 1.08667 5.73333 0.74 6.88 0.74C8.04 0.74 8.92667 1.03333 9.54 1.62C10.1533 2.20667 10.46 2.95333 10.46 3.86C10.46 4.46 10.26 5.14667 9.86 5.92H8.36ZM3.12 13.72C3.48 14.1067 3.91333 14.3 4.42 14.3C4.94 14.3 5.34 14.1533 5.62 13.86C5.91333 13.5533 6.06 13.1067 6.06 12.52C6.06 11.9867 5.85333 11.3333 5.44 10.56C5.38667 10.4533 5.28667 10.26 5.14 9.98C4.99333 9.68667 4.88667 9.48 4.82 9.36C3.32667 10.1333 2.58 11.1067 2.58 12.28C2.58 12.88 2.76 13.36 3.12 13.72ZM13.8256 6.36C14.6923 6.36 15.199 6.58 15.3456 7.02C15.9723 6.58 16.7656 6.36 17.7256 6.36C18.6856 6.36 19.5123 6.75333 20.2056 7.54C20.899 8.32667 21.2456 9.24667 21.2456 10.3C21.2456 10.4467 21.239 10.6 21.2256 10.76C21.079 12.5067 20.4923 13.84 19.4656 14.76C18.439 15.6667 17.099 16.12 15.4456 16.12C15.0723 16.12 14.6656 16.0733 14.2256 15.98L13.5856 21.48H10.9656C11.819 14.1333 12.3923 9.14667 12.6856 6.52C12.9656 6.41333 13.3456 6.36 13.8256 6.36ZM18.4256 10.44C18.4256 9.85333 18.2923 9.33333 18.0256 8.88C17.759 8.42667 17.3456 8.2 16.7856 8.2C16.0256 8.2 15.4456 8.69333 15.0456 9.68C14.779 11.6533 14.6256 12.8 14.5856 13.12C14.5723 13.52 14.699 13.82 14.9656 14.02C15.2323 14.22 15.559 14.32 15.9456 14.32C16.6256 14.32 17.1856 14.0133 17.6256 13.4C18.159 12.64 18.4256 11.6533 18.4256 10.44ZM24.9316 1.28C25.2382 0.959999 25.6116 0.799999 26.0516 0.799999C26.4916 0.799999 26.8649 0.959999 27.1716 1.28C27.4916 1.58667 27.6516 1.96 27.6516 2.4C27.6516 2.84 27.4916 3.21333 27.1716 3.52C26.8649 3.82667 26.4916 3.98 26.0516 3.98C25.6116 3.98 25.2382 3.82667 24.9316 3.52C24.6249 3.21333 24.4716 2.84 24.4716 2.4C24.4716 1.96 24.6249 1.58667 24.9316 1.28ZM24.1116 7.14C24.2449 6.9 24.4982 6.72 24.8716 6.6C25.2449 6.46667 25.6116 6.4 25.9716 6.4C26.3449 6.4 26.6716 6.44667 26.9516 6.54C26.4316 10.5533 26.1716 12.58 26.1716 12.62C26.1049 12.8867 26.0716 13.1133 26.0716 13.3C26.0716 13.4733 26.0849 13.6267 26.1116 13.76C26.1649 14.1067 26.4049 14.28 26.8316 14.28C27.2716 14.28 27.6716 14 28.0316 13.44C28.4049 12.8667 28.6849 12.22 28.8716 11.5C28.9649 11.5533 29.1116 11.7133 29.3116 11.98C29.5116 12.2467 29.6316 12.4467 29.6716 12.58C29.4049 13.6467 28.9516 14.5067 28.3116 15.16C27.6716 15.8133 26.9049 16.14 26.0116 16.14C25.1182 16.14 24.4516 15.92 24.0116 15.48C23.5849 15.04 23.3716 14.4733 23.3716 13.78C23.3716 13.6333 23.3782 13.48 23.3916 13.32L24.1116 7.14ZM35.5005 9.22C35.5005 8.35333 35.1138 7.92 34.3405 7.92C33.7671 7.92 33.2538 8.24667 32.8005 8.9C32.3205 9.60667 32.0805 10.4333 32.0805 11.38C32.0805 12.3267 32.2871 13.06 32.7005 13.58C33.1271 14.0867 33.7071 14.34 34.4405 14.34C35.3205 14.34 36.2471 13.98 37.2205 13.26C38.2071 12.54 39.0005 11.6467 39.6005 10.58C39.8671 10.78 40.1271 11.1467 40.3805 11.68C39.9938 12.4533 39.2738 13.32 38.2205 14.28C37.6738 14.7867 36.9938 15.2133 36.1805 15.56C35.3005 15.9333 34.4205 16.12 33.5405 16.12C32.3538 16.12 31.3471 15.7133 30.5205 14.9C29.7071 14.0867 29.3005 13.0267 29.3005 11.72C29.3005 10.1333 29.8338 8.84667 30.9005 7.86C31.9671 6.87333 33.1605 6.38 34.4805 6.38C35.5071 6.38 36.3205 6.59333 36.9205 7.02C37.5205 7.44667 37.8205 8.00667 37.8205 8.7C37.8205 9.15333 37.6605 9.54667 37.3405 9.88C36.7538 10.4667 36.0405 10.76 35.2005 10.76C35.4005 10.0933 35.5005 9.58 35.5005 9.22ZM43.5355 11.52C44.3621 11.3467 44.9755 11.0133 45.3755 10.52C45.7888 10.0267 45.9955 9.55333 45.9955 9.1C45.9955 8.63333 45.8688 8.32 45.6155 8.16C45.3755 7.98667 45.1088 7.9 44.8155 7.9C44.1888 7.9 43.6355 8.25333 43.1555 8.96C42.6888 9.65333 42.4555 10.4867 42.4555 11.46C42.4555 12.42 42.6821 13.14 43.1355 13.62C43.6021 14.0867 44.1755 14.32 44.8555 14.32C45.8555 14.32 46.8155 13.9733 47.7355 13.28C48.6555 12.5867 49.4021 11.68 49.9755 10.56C50.2688 10.84 50.5355 11.1867 50.7755 11.6C50.3355 12.6 49.5555 13.58 48.4355 14.54C47.8755 15.0067 47.2088 15.3867 46.4355 15.68C45.6755 15.9733 44.8888 16.12 44.0755 16.12C42.7421 16.12 41.6888 15.7133 40.9155 14.9C40.0888 14.02 39.6755 12.8933 39.6755 11.52C39.6755 10.1467 40.1888 8.94667 41.2155 7.92C42.2555 6.89333 43.4955 6.38 44.9355 6.38C45.9621 6.38 46.7955 6.60667 47.4355 7.06C48.0755 7.5 48.4021 8.1 48.4155 8.86C48.4155 9.88667 48.0021 10.72 47.1755 11.36C46.3621 12 45.2421 12.4467 43.8155 12.7L43.5355 11.52ZM58.0319 5.92C58.4319 5.32 58.6319 4.76 58.6319 4.24C58.6319 3.72 58.4852 3.30667 58.1919 3C57.8985 2.69333 57.5119 2.54 57.0319 2.54C56.5519 2.54 56.1652 2.66 55.8719 2.9C55.5785 3.12667 55.4319 3.49333 55.4319 4C55.4319 4.49333 55.7785 5.38667 56.4719 6.68C57.1652 7.97333 57.6052 8.80667 57.7919 9.18C58.2985 10.1933 58.5519 11.1733 58.5519 12.12C58.5519 13.3067 58.1185 14.2733 57.2519 15.02C56.3985 15.7533 55.3852 16.12 54.2119 16.12C53.0519 16.12 52.1385 15.76 51.4719 15.04C50.8052 14.3067 50.4719 13.4533 50.4719 12.48C50.4719 10.68 51.5852 9.19333 53.8119 8.02C52.9052 6.23333 52.4519 4.98667 52.4519 4.28C52.4519 3.29333 52.8452 2.46 53.6319 1.78C54.4319 1.08667 55.4052 0.74 56.5519 0.74C57.7119 0.74 58.5985 1.03333 59.2119 1.62C59.8252 2.20667 60.1319 2.95333 60.1319 3.86C60.1319 4.46 59.9319 5.14667 59.5319 5.92H58.0319ZM52.7919 13.72C53.1519 14.1067 53.5852 14.3 54.0919 14.3C54.6119 14.3 55.0119 14.1533 55.2919 13.86C55.5852 13.5533 55.7319 13.1067 55.7319 12.52C55.7319 11.9867 55.5252 11.3333 55.1119 10.56C55.0585 10.4533 54.9585 10.26 54.8119 9.98C54.6652 9.68667 54.5585 9.48 54.4919 9.36C52.9985 10.1333 52.2519 11.1067 52.2519 12.28C52.2519 12.88 52.4319 13.36 52.7919 13.72ZM64.7375 21.94C63.9775 21.94 63.3242 21.7067 62.7775 21.24C62.2308 20.7867 61.9575 20.12 61.9575 19.24C61.9575 18.16 62.5042 17.1067 63.5975 16.08C62.8242 16.0133 62.2042 15.76 61.7375 15.32C61.2708 14.88 61.0375 14.26 61.0375 13.46C61.0375 13.0867 61.0842 12.5267 61.1775 11.78C61.2708 11.0333 61.3708 10.2267 61.4775 9.36C61.5842 8.49333 61.6975 7.57333 61.8175 6.6C62.2308 6.45333 62.6108 6.38 62.9575 6.38C63.3042 6.38 63.5642 6.39333 63.7375 6.42C63.9108 6.44667 64.0775 6.54667 64.2375 6.72C64.3975 6.89333 64.4775 7.14 64.4775 7.46L63.8175 12.56C63.7908 12.7733 63.7775 12.92 63.7775 13C63.7775 13.7867 64.1375 14.18 64.8575 14.18C65.5108 14.18 66.0442 13.8733 66.4575 13.26C66.4975 12.9533 66.5975 12.0733 66.7575 10.62C66.9175 9.15333 67.0508 8.01333 67.1575 7.2C67.2775 6.94667 67.5242 6.74667 67.8975 6.6C68.2842 6.45333 68.5975 6.38 68.8375 6.38C69.2642 6.38 69.6508 6.43333 69.9975 6.54L69.0575 13.92C70.6175 14.2 71.5508 15.2733 71.8575 17.14C71.8042 17.3933 71.5508 17.7933 71.0975 18.34C70.8308 16.6733 70.0975 15.66 68.8975 15.3L68.5775 17.8C68.4308 19 68.0508 19.9867 67.4375 20.76C66.8242 21.5467 65.9242 21.94 64.7375 21.94ZM63.5175 18.86C63.5175 19.3 63.6242 19.6267 63.8375 19.84C64.0508 20.0533 64.3308 20.16 64.6775 20.16C65.0375 20.16 65.3108 20.0133 65.4975 19.72C65.6842 19.4267 65.8308 18.84 65.9375 17.96L66.1975 15.76C64.4508 16.6667 63.5575 17.7 63.5175 18.86ZM77.9241 13.76L78.4041 9.3C78.4041 8.94 78.3107 8.64 78.1241 8.4C77.9374 8.16 77.6241 8.04 77.1841 8.04C76.7574 8.04 76.3907 8.23333 76.0841 8.62C75.7907 8.99333 75.6041 9.46667 75.5241 10.04C75.0441 13.6933 74.7907 15.68 74.7641 16H72.0641L73.1641 6.58C73.7241 6.43333 74.1507 6.36 74.4441 6.36C75.3374 6.36 75.8041 6.68667 75.8441 7.34C76.4974 6.7 77.2774 6.38 78.1841 6.38C79.1041 6.38 79.8241 6.60667 80.3441 7.06C80.8641 7.51333 81.1241 8.08667 81.1241 8.78C81.1241 8.96667 81.0841 9.32 81.0041 9.84C80.6974 11.8667 80.5441 13.0467 80.5441 13.38C80.5441 13.9933 80.7507 14.3 81.1641 14.3C82.0707 14.3 82.7574 13.3533 83.2241 11.46C83.6774 11.94 83.9507 12.32 84.0441 12.6C83.3374 14.9467 82.1107 16.12 80.3641 16.12C79.5374 16.12 78.9241 15.8667 78.5241 15.36C78.1241 14.8533 77.9241 14.32 77.9241 13.76ZM90.0552 9.22C90.0552 8.35333 89.6685 7.92 88.8952 7.92C88.3218 7.92 87.8085 8.24667 87.3552 8.9C86.8752 9.60667 86.6352 10.4333 86.6352 11.38C86.6352 12.3267 86.8418 13.06 87.2552 13.58C87.6818 14.0867 88.2618 14.34 88.9952 14.34C89.8752 14.34 90.8018 13.98 91.7752 13.26C92.7618 12.54 93.5552 11.6467 94.1552 10.58C94.4218 10.78 94.6818 11.1467 94.9352 11.68C94.5485 12.4533 93.8285 13.32 92.7752 14.28C92.2285 14.7867 91.5485 15.2133 90.7352 15.56C89.8552 15.9333 88.9752 16.12 88.0952 16.12C86.9085 16.12 85.9018 15.7133 85.0752 14.9C84.2618 14.0867 83.8552 13.0267 83.8552 11.72C83.8552 10.1333 84.3885 8.84667 85.4552 7.86C86.5218 6.87333 87.7152 6.38 89.0352 6.38C90.0618 6.38 90.8752 6.59333 91.4752 7.02C92.0752 7.44667 92.3752 8.00667 92.3752 8.7C92.3752 9.15333 92.2152 9.54667 91.8952 9.88C91.3085 10.4667 90.5952 10.76 89.7552 10.76C89.9552 10.0933 90.0552 9.58 90.0552 9.22Z" fill="black"/>
</svg>
